<?xml version="1.0" standalone="no"?>
<!DOCTYPE svg PUBLIC "-//W3C//DTD SVG 20010904//EN"
 "http://www.w3.org/TR/2001/REC-SVG-20010904/DTD/svg10.dtd">
<svg version="1.0" xmlns="http://www.w3.org/2000/svg"
 width="1579.000000pt" height="1579.000000pt" viewBox="0 0 1579.000000 1579.000000"
 preserveAspectRatio="xMidYMid meet">
<metadata>
Created by potrace 1.11, written by Peter Selinger 2001-2013
</metadata>
<g transform="translate(0.000000,1579.000000) scale(0.100000,-0.100000)"
fill="#000000" stroke="none">
<path d="M10801 13089 c6 -3 2 -9 -10 -12 -14 -3 -19 -1 -14 6 3 7 -2 4 -13
-5 -11 -10 -31 -19 -45 -20 -13 -2 -27 -7 -30 -11 -3 -5 -15 -10 -25 -12 -10
-2 -20 -4 -21 -5 -2 -2 -6 -3 -10 -4 -5 -1 -14 -5 -20 -9 -7 -5 -18 -5 -23 -2
-6 3 -13 -1 -16 -10 -4 -9 -13 -14 -21 -11 -9 4 -11 1 -7 -5 4 -7 1 -10 -7 -7
-8 3 -20 -2 -27 -11 -11 -13 -12 -13 -7 -1 4 8 -1 6 -9 -4 -9 -11 -16 -16 -16
-10 0 5 -3 5 -8 -1 -12 -17 -52 -36 -62 -30 -6 4 -10 1 -10 -5 0 -6 -4 -9 -9
-6 -5 4 -12 0 -14 -6 -4 -10 -8 -9 -16 2 -8 12 -11 12 -11 1 0 -8 -6 -11 -16
-7 -10 4 -13 2 -8 -6 5 -7 0 -9 -14 -6 -12 4 -19 2 -16 -3 3 -5 -2 -12 -10
-15 -9 -3 -16 -10 -16 -15 0 -16 -53 -70 -65 -65 -6 2 -12 -5 -12 -16 -1 -11
-17 -34 -35 -51 -18 -16 -27 -26 -19 -22 9 5 12 4 7 -3 -4 -7 -17 -12 -29 -12
-15 0 -18 -3 -9 -8 9 -6 4 -16 -20 -38 -18 -16 -36 -28 -40 -26 -5 1 -7 -3 -5
-10 1 -7 -5 -12 -13 -13 -8 0 -14 -8 -12 -18 4 -24 -17 -59 -31 -51 -9 5 -9 4
0 -6 10 -11 9 -16 -5 -27 -11 -10 -12 -12 -2 -7 12 6 13 4 3 -7 -7 -7 -13 -23
-13 -36 0 -13 -4 -23 -10 -23 -5 0 -6 -7 -3 -17 5 -12 3 -14 -7 -8 -9 6 -12 4
-8 -6 3 -8 -2 -32 -12 -52 -10 -20 -14 -35 -9 -32 5 4 6 -1 3 -9 -3 -9 -10
-16 -15 -16 -5 0 -8 -6 -6 -12 1 -7 -3 -12 -10 -11 -7 2 -10 -4 -6 -13 3 -9
-3 -24 -16 -35 -11 -11 -21 -16 -21 -12 0 4 -5 2 -12 -5 -16 -16 -31 -15 -22
1 4 6 -3 3 -15 -8 -19 -16 -24 -17 -31 -5 -7 11 -10 12 -10 2 0 -7 -5 -10 -10
-7 -6 4 -17 1 -25 -5 -12 -10 -15 -10 -15 0 0 10 -3 10 -15 0 -12 -10 -15 -10
-15 1 0 10 -2 11 -8 2 -4 -6 -22 -10 -40 -9 -17 1 -32 -2 -32 -7 0 -5 -7 -4
-15 3 -12 10 -15 10 -15 0 0 -9 -3 -10 -13 -1 -8 6 -17 8 -20 4 -4 -3 -7 -1
-7 5 0 7 -6 12 -12 12 -14 0 -63 48 -63 61 0 4 -4 11 -9 16 -5 5 -6 3 -2 -4 4
-7 2 -13 -3 -13 -6 0 -11 5 -11 10 0 6 -9 10 -20 10 -11 0 -20 5 -20 10 0 6
-6 10 -12 9 -28 -3 -39 1 -32 14 5 8 2 8 -9 -2 -10 -8 -17 -9 -17 -3 0 6 -12
9 -27 6 -24 -5 -25 -3 -12 13 13 17 13 17 -6 2 -21 -17 -50 -15 -39 3 3 5 -4
4 -15 -4 -18 -11 -23 -11 -31 2 -9 13 -10 13 -10 0 0 -13 -1 -13 -10 0 -5 8
-10 11 -10 6 0 -5 -8 -2 -17 5 -11 10 -14 10 -9 2 4 -7 3 -13 -1 -13 -5 0 -15
6 -22 13 -11 9 -12 9 -7 0 8 -14 -19 -7 -43 11 -11 8 -13 8 -8 -1 5 -8 -2 -11
-24 -9 -18 1 -51 -1 -75 -4 -24 -4 -41 -4 -39 0 2 4 -2 7 -10 7 -8 0 -12 -4
-9 -9 3 -4 -1 -8 -10 -8 -8 0 -17 6 -19 13 -4 9 -6 9 -6 0 -1 -7 -8 -10 -18
-6 -10 4 -14 2 -10 -4 3 -5 1 -10 -6 -11 -7 0 -25 -3 -42 -5 -16 -2 -33 1 -37
7 -5 7 -8 4 -8 -7 0 -10 -5 -15 -10 -12 -6 4 -7 11 -4 17 4 7 2 8 -5 4 -6 -4
-8 -12 -5 -18 5 -7 0 -9 -14 -6 -12 4 -22 1 -22 -4 0 -6 -8 -4 -17 3 -11 10
-14 10 -9 2 4 -7 4 -13 -1 -14 -4 0 -19 -2 -32 -5 -13 -2 -30 1 -38 7 -11 9
-12 9 -7 -4 4 -12 1 -15 -15 -12 -11 2 -23 0 -26 -6 -4 -5 -12 -9 -18 -9 -7 0
-6 4 3 10 9 6 10 10 3 10 -6 0 -18 -6 -26 -14 -11 -11 -17 -12 -27 -3 -10 9
-11 9 -6 0 7 -13 -14 -21 -64 -27 -40 -4 -80 -17 -80 -26 0 -5 -9 -12 -20 -15
-11 -4 -18 -11 -15 -16 4 -5 -1 -9 -10 -9 -10 0 -13 5 -9 12 4 7 3 8 -4 4 -6
-4 -9 -13 -5 -22 3 -8 2 -14 -3 -13 -13 3 -46 -12 -68 -30 -13 -10 -17 -11
-12 -3 7 11 4 12 -11 3 -11 -6 -23 -7 -27 -3 -4 3 -4 -2 0 -12 5 -14 4 -17 -4
-12 -7 4 -12 2 -12 -6 0 -9 -3 -9 -10 2 -8 13 -10 13 -10 -2 0 -11 -6 -16 -20
-13 -11 2 -19 1 -17 -3 1 -4 -2 -7 -8 -7 -5 0 -9 5 -7 10 2 6 0 6 -5 2 -4 -5
-8 -14 -8 -20 0 -7 -8 -11 -18 -11 -9 1 -14 -2 -11 -7 7 -11 -42 -23 -57 -13
-7 4 -9 3 -6 -3 4 -6 0 -14 -9 -17 -10 -4 -13 -2 -8 7 6 9 5 9 -7 0 -11 -9
-19 -9 -26 -2 -8 8 -13 8 -17 0 -4 -6 -12 -11 -17 -11 -6 0 -7 5 -3 11 4 8 0
8 -15 0 -16 -9 -21 -9 -21 1 0 9 -3 9 -11 -2 -7 -10 -12 -11 -15 -3 -3 6 -16
9 -30 7 -15 -3 -23 -1 -20 5 4 5 -6 9 -21 8 -41 -2 -93 13 -93 26 0 7 -4 6
-10 -3 -6 -9 -10 -10 -10 -3 0 6 -9 10 -20 8 -11 -2 -20 2 -20 8 0 8 -3 8 -8
2 -11 -15 -55 -18 -46 -2 5 8 2 8 -9 -2 -11 -8 -17 -9 -17 -3 0 7 -7 9 -17 5
-10 -4 -14 -2 -10 4 3 5 0 10 -8 10 -8 0 -11 -5 -8 -10 4 -6 1 -7 -7 -2 -8 5
-41 9 -75 10 -33 0 -66 5 -74 9 -8 5 -12 5 -8 0 3 -5 -21 -10 -54 -10 -38 -1
-57 2 -52 9 4 6 1 7 -8 2 -7 -5 -26 -10 -42 -12 -20 -2 -26 0 -21 10 6 9 4 9
-7 1 -8 -6 -33 -10 -57 -9 -24 1 -45 -2 -48 -7 -3 -5 -12 -4 -19 2 -10 8 -19
8 -35 -2 -17 -11 -22 -11 -30 2 -6 10 -10 11 -10 3 0 -7 -8 -13 -17 -13 -15 0
-16 2 -3 10 20 13 4 13 -20 0 -13 -7 -21 -7 -25 0 -3 5 -12 10 -18 10 -7 0 -6
-4 3 -10 11 -7 6 -9 -20 -8 -19 0 -45 -2 -57 -6 -12 -4 -32 -2 -44 4 -16 9
-20 9 -14 1 4 -8 -2 -10 -19 -7 -14 3 -28 1 -31 -4 -3 -4 -16 -7 -30 -6 -13 2
-22 -1 -19 -5 5 -8 -10 -13 -28 -10 -5 0 -8 -4 -8 -11 0 -6 -3 -8 -6 -5 -4 4
-19 -1 -33 -11 -14 -10 -39 -24 -56 -32 -46 -22 -77 -48 -97 -81 -10 -16 -23
-27 -28 -24 -6 4 -9 3 -8 -2 5 -14 -42 -84 -52 -78 -6 3 -10 -2 -10 -11 0 -10
-3 -14 -7 -11 -3 4 -12 -1 -20 -11 -10 -11 -12 -12 -8 -2 4 8 -1 6 -10 -5 -13
-15 -19 -16 -22 -7 -4 10 -9 8 -20 -5 -8 -10 -11 -11 -7 -3 7 13 6 13 -10 1
-14 -12 -19 -12 -25 -2 -6 10 -10 9 -14 -2 -4 -10 -16 -14 -32 -13 -14 2 -28
-1 -31 -5 -9 -15 -24 -10 -24 9 0 12 -3 13 -8 4 -6 -9 -15 -5 -32 15 -14 16
-24 31 -22 35 1 5 -1 7 -6 5 -14 -4 -54 41 -47 54 5 8 4 10 -4 5 -6 -4 -18 0
-27 8 -8 9 -11 16 -5 16 6 0 11 4 11 10 0 5 -7 7 -16 3 -10 -4 -17 1 -21 16
-3 12 -21 28 -39 37 -19 9 -31 21 -27 27 4 7 0 8 -11 4 -13 -5 -19 -1 -23 14
-4 16 -8 17 -14 7 -7 -10 -9 -10 -9 0 0 6 -7 12 -15 12 -8 0 -14 6 -12 13 1 6
-5 11 -14 9 -9 -1 -19 4 -23 13 -3 8 -14 15 -24 15 -10 0 -23 5 -30 12 -7 7
-12 9 -12 5 0 -4 -10 -2 -22 4 -13 7 -33 14 -46 15 -13 2 -31 9 -40 16 -9 8
-13 8 -9 1 5 -7 0 -9 -13 -6 -11 3 -20 8 -20 12 0 3 -19 7 -43 7 -58 2 -82 7
-104 24 -17 14 -17 14 -3 -4 14 -18 14 -19 -5 -12 -11 5 -27 8 -35 9 -8 0 -21
5 -29 11 -11 8 -13 8 -7 -1 4 -8 2 -13 -6 -13 -8 0 -20 6 -27 13 -11 10 -13
10 -7 0 4 -7 2 -13 -3 -13 -6 0 -11 6 -11 13 0 9 -3 8 -9 -2 -5 -8 -11 -9 -15
-3 -3 6 -14 9 -24 7 -9 -1 -23 3 -31 9 -12 9 -13 8 -6 -3 6 -11 4 -13 -11 -7
-30 12 -55 16 -50 7 3 -4 -15 -7 -39 -7 -26 0 -41 4 -38 9 4 6 1 7 -8 1 -19
-12 -30 -12 -53 -1 -13 6 -16 6 -12 -2 4 -6 0 -11 -9 -11 -10 0 -13 5 -9 13 6
9 4 9 -7 1 -8 -6 -24 -10 -36 -8 -12 2 -25 -1 -28 -6 -3 -6 -11 -10 -16 -10
-6 0 -7 6 -3 13 5 8 3 8 -9 -2 -9 -7 -26 -11 -37 -8 -13 3 -18 1 -13 -6 4 -6
-1 -8 -15 -5 -13 4 -23 0 -26 -9 -3 -8 -10 -12 -15 -8 -5 3 -13 0 -17 -6 -4
-8 -9 -7 -15 2 -7 11 -9 10 -9 -3 0 -10 -10 -20 -25 -24 -14 -3 -25 -10 -25
-16 0 -5 -4 -6 -10 -3 -5 3 -10 -1 -10 -9 0 -14 -12 -20 -32 -17 -5 0 -7 -2
-7 -7 3 -20 -2 -32 -13 -26 -6 4 -8 3 -4 -4 8 -13 -13 -62 -27 -62 -5 0 -7 -6
-4 -13 3 -7 -1 -21 -9 -31 -7 -11 -11 -23 -8 -27 3 -5 0 -9 -6 -9 -6 0 -8 -4
-5 -10 3 -5 3 -16 -2 -22 -8 -14 -10 -19 -12 -44 0 -8 -5 -13 -10 -9 -5 3 -13
0 -17 -6 -4 -8 -3 -9 4 -5 8 5 12 -1 12 -14 0 -12 -3 -19 -7 -17 -5 3 -9 -16
-10 -41 -3 -91 -11 -134 -24 -144 -11 -8 -10 -9 3 -5 14 5 16 0 11 -41 -3 -26
-6 -54 -6 -62 0 -8 -5 -21 -11 -29 -8 -11 -8 -13 2 -7 8 5 12 0 12 -13 0 -12
-6 -21 -12 -21 -9 0 -8 -4 2 -10 8 -5 12 -10 8 -10 -4 0 -3 -14 2 -31 8 -28 8
-30 -8 -18 -16 13 -16 12 -1 -6 9 -12 15 -37 15 -62 -1 -24 1 -43 4 -43 3 0 6
-8 6 -17 0 -10 3 -31 7 -48 6 -22 5 -26 -3 -15 -6 9 -10 10 -10 3 0 -6 4 -14
9 -17 4 -3 7 -17 6 -31 -2 -14 2 -25 8 -25 5 0 8 -3 5 -6 -4 -3 -2 -19 2 -36
8 -26 7 -29 -8 -24 -14 5 -14 4 2 -8 11 -9 16 -22 13 -31 -4 -8 -2 -15 3 -15
6 0 10 -7 10 -15 0 -9 7 -30 15 -48 14 -29 14 -30 0 -13 -8 11 -15 16 -15 11
0 -5 7 -17 16 -27 14 -15 15 -20 3 -35 -13 -16 -12 -17 2 -5 14 10 18 10 23
-3 4 -11 2 -14 -7 -9 -6 4 -4 -2 6 -14 11 -11 16 -26 12 -31 -3 -6 -1 -11 5
-11 6 0 8 -4 5 -10 -3 -5 -1 -10 6 -10 8 0 7 -5 -2 -17 -12 -14 -12 -16 0 -8
11 6 13 4 8 -9 -4 -10 -3 -15 3 -11 6 4 13 -7 16 -24 4 -17 11 -31 16 -31 5 0
6 -4 3 -10 -3 -5 -1 -10 6 -10 7 0 10 -3 6 -6 -3 -4 1 -13 9 -21 8 -9 12 -23
9 -31 -3 -9 -3 -13 1 -10 10 11 36 -20 28 -33 -4 -8 -3 -9 5 -5 7 5 13 -3 17
-23 4 -17 11 -31 16 -31 6 0 8 -11 6 -25 -3 -14 -1 -28 5 -32 6 -4 7 -1 2 8
-5 10 -5 11 3 4 5 -5 12 -21 14 -35 1 -14 8 -28 13 -32 6 -5 4 -8 -4 -8 -11 0
-9 -4 5 -15 10 -8 15 -15 11 -15 -4 0 1 -10 13 -22 11 -12 20 -30 20 -40 0
-12 4 -16 11 -12 8 4 9 -1 4 -16 -5 -15 -4 -20 4 -16 6 4 11 4 12 -1 0 -4 2
-16 4 -26 2 -11 -1 -15 -8 -10 -7 4 -6 -1 2 -10 11 -14 11 -17 0 -17 -11 0
-11 -2 1 -10 10 -6 11 -10 3 -10 -7 0 -15 -11 -19 -25 -3 -14 -10 -25 -15 -25
-5 0 -8 -6 -6 -12 1 -7 -4 -12 -11 -10 -8 1 -11 -2 -8 -7 4 -5 -3 -25 -14 -43
-11 -18 -20 -29 -20 -23 0 5 -10 -3 -23 -19 -49 -62 -114 -126 -122 -119 -4 5
-5 3 -2 -4 4 -6 0 -18 -8 -26 -8 -9 -15 -20 -15 -26 0 -6 -7 -11 -16 -11 -9 0
-12 -5 -8 -12 5 -8 2 -9 -10 -5 -9 4 -15 3 -12 -1 3 -5 -4 -21 -15 -38 -10
-16 -19 -25 -19 -20 0 4 -9 -2 -21 -15 -11 -13 -18 -18 -14 -11 3 6 2 12 -3
12 -5 0 -12 -9 -15 -21 -3 -12 -9 -19 -14 -16 -10 6 -28 -13 -29 -30 -3 -34
-5 -36 -20 -17 -14 18 -15 18 -4 -4 9 -18 8 -27 -2 -40 -7 -9 -8 -13 -1 -9 7
5 9 0 6 -13 -3 -11 -10 -17 -17 -13 -7 4 -6 1 1 -9 7 -8 10 -17 7 -20 -5 -6
-11 -49 -13 -95 -1 -13 -6 -23 -12 -23 -5 0 -7 5 -3 12 4 7 3 8 -5 4 -9 -6 -9
-11 0 -22 8 -10 9 -18 0 -27 -6 -8 -8 -17 -4 -20 3 -4 0 -14 -8 -24 -9 -11
-10 -14 -2 -9 7 4 13 2 13 -3 0 -6 -4 -11 -10 -11 -5 0 -6 -7 -3 -17 4 -10 2
-14 -4 -10 -6 4 -9 -6 -8 -23 1 -17 -1 -30 -5 -30 -4 0 -7 -7 -8 -15 -1 -8 -3
-22 -4 -30 -1 -8 -5 -15 -9 -15 -5 0 -6 -7 -3 -15 4 -8 2 -15 -3 -15 -5 0 -10
-12 -11 -26 -1 -15 -6 -32 -11 -38 -10 -12 -11 -16 -11 -42 0 -9 -5 -12 -12
-8 -7 4 -8 3 -4 -4 4 -7 4 -18 -1 -24 -4 -7 -8 -24 -9 -38 -2 -40 -3 -42 -16
-34 -9 5 -9 2 1 -9 12 -15 11 -17 -5 -18 -12 0 -14 -3 -6 -6 10 -4 9 -10 -5
-26 -10 -11 -12 -17 -5 -13 6 4 12 2 12 -3 0 -6 -5 -11 -11 -11 -6 0 -8 -7 -5
-16 4 -10 -1 -26 -11 -37 -10 -11 -12 -17 -6 -13 9 5 11 2 7 -8 -3 -9 -9 -16
-13 -16 -4 0 -7 -10 -6 -22 3 -29 -5 -49 -15 -43 -4 3 -7 -3 -6 -13 0 -9 -5
-16 -12 -14 -8 1 -11 -2 -7 -8 3 -6 11 -8 16 -5 5 4 9 1 9 -4 0 -6 -5 -11 -11
-11 -5 0 -7 -4 -4 -10 3 -5 -2 -10 -12 -10 -12 0 -14 -3 -6 -8 13 -8 6 -62 -9
-62 -5 0 -7 -4 -4 -8 3 -5 -2 -21 -9 -36 -8 -16 -13 -31 -10 -35 2 -4 -3 -21
-11 -37 -9 -16 -15 -30 -15 -31 4 -15 -1 -23 -11 -17 -10 5 -10 4 -1 -6 10
-11 9 -18 -5 -34 -9 -11 -11 -16 -5 -12 14 8 7 -19 -10 -41 -5 -7 -6 -13 -3
-13 4 0 2 -8 -3 -19 -6 -10 -13 -33 -16 -52 -3 -19 -10 -35 -14 -37 -5 -2 -6
-12 -3 -24 3 -13 1 -19 -5 -15 -7 5 -9 0 -6 -13 3 -13 0 -20 -8 -20 -11 0 -11
-2 1 -10 11 -7 11 -10 2 -10 -7 0 -11 -4 -8 -8 3 -5 -1 -21 -9 -36 -8 -14 -9
-24 -4 -20 8 4 8 0 0 -13 -6 -11 -7 -23 -4 -27 3 -3 1 -6 -5 -6 -6 0 -9 -7 -6
-15 4 -8 1 -15 -5 -15 -6 0 -8 -7 -4 -17 5 -12 3 -14 -8 -8 -12 8 -12 6 0 -8
7 -9 9 -17 3 -17 -5 0 -13 -7 -16 -16 -4 -10 -2 -13 7 -8 8 6 8 3 -1 -9 -8 -9
-11 -21 -7 -27 3 -5 2 -10 -4 -10 -6 0 -8 -7 -5 -15 4 -8 1 -15 -4 -15 -6 0
-9 -9 -7 -20 2 -11 0 -20 -4 -20 -4 0 -8 -6 -9 -12 -2 -24 -8 -47 -14 -54 -4
-3 -4 -12 -1 -20 3 -8 0 -14 -6 -14 -6 0 -10 -3 -9 -7 5 -18 -13 -74 -21 -68
-6 3 -8 -6 -5 -21 3 -14 1 -23 -5 -20 -5 3 -7 -3 -4 -14 4 -17 2 -19 -13 -13
-17 6 -17 5 -5 -10 11 -14 11 -20 1 -32 -7 -8 -9 -15 -5 -15 4 0 0 -11 -9 -25
-9 -13 -16 -31 -16 -39 0 -24 -22 -66 -31 -60 -5 3 -9 1 -9 -5 0 -5 5 -11 10
-13 6 -2 2 -19 -10 -40 -11 -21 -20 -45 -20 -55 0 -9 -8 -25 -18 -36 -9 -12
-11 -17 -3 -12 9 5 12 3 9 -6 -3 -8 -12 -13 -19 -11 -11 3 -12 1 -1 -9 17 -19
15 -39 -5 -39 -14 0 -15 -2 -5 -9 17 -11 15 -21 -12 -47 -11 -11 -22 -27 -24
-35 -2 -7 -8 -15 -13 -17 -5 -2 -9 -10 -9 -18 0 -8 -7 -17 -15 -20 -8 -4 -12
-10 -9 -15 3 -5 0 -9 -5 -9 -6 0 -11 -7 -11 -15 0 -8 -5 -15 -11 -15 -5 0 -7
-5 -3 -12 5 -8 0 -9 -16 -5 -16 4 -20 3 -12 -5 12 -12 4 -41 -9 -32 -5 3 -9
-2 -9 -12 0 -9 -9 -25 -21 -35 -11 -9 -20 -20 -19 -23 2 -13 -64 -104 -72
-100 -5 3 -8 2 -7 -3 4 -24 -2 -35 -18 -29 -10 4 -14 4 -10 0 4 -4 1 -14 -6
-23 -11 -14 -10 -15 8 -1 17 13 16 11 -4 -18 -12 -18 -26 -30 -31 -27 -4 3 -6
-4 -3 -15 3 -12 0 -20 -6 -20 -7 0 -9 -4 -6 -10 3 -5 0 -10 -7 -10 -8 0 -14
-10 -15 -22 -1 -12 -12 -30 -24 -39 -12 -9 -19 -21 -15 -28 4 -6 2 -11 -3 -11
-6 0 -11 -7 -11 -15 0 -8 -5 -15 -11 -15 -5 0 -7 -4 -4 -10 3 -6 1 -10 -5 -10
-6 0 -9 -3 -7 -7 6 -10 -19 -34 -27 -26 -3 3 -4 -4 -1 -16 2 -11 0 -21 -6 -21
-5 0 -8 -6 -7 -12 2 -7 -3 -12 -10 -10 -8 1 -11 -1 -9 -5 3 -5 0 -19 -5 -33
-7 -20 -11 -22 -19 -10 -9 12 -10 12 -5 -2 7 -22 -3 -50 -14 -43 -5 3 -12 0
-16 -6 -4 -8 -3 -9 4 -5 17 10 15 4 -17 -61 -16 -32 -32 -67 -35 -78 -6 -16
-9 -17 -17 -5 -7 11 -8 7 -3 -12 4 -18 2 -28 -5 -28 -6 0 -10 -3 -9 -7 4 -15
-21 -73 -32 -73 -6 0 -8 -4 -5 -10 3 -5 1 -10 -5 -10 -6 0 -8 -4 -5 -10 3 -6
1 -10 -4 -10 -6 0 -11 -9 -11 -20 0 -10 -8 -24 -17 -29 -10 -6 -13 -11 -8 -11
6 0 -1 -8 -15 -16 -16 -10 -18 -13 -6 -9 18 5 19 4 4 -12 -8 -10 -18 -26 -21
-36 -4 -10 -11 -16 -15 -13 -5 3 -8 -4 -8 -16 1 -12 -5 -23 -13 -26 -9 -3 -11
0 -6 8 5 9 4 11 -4 6 -9 -6 -9 -11 -1 -21 12 -15 4 -39 -10 -30 -4 3 -6 -4 -3
-15 3 -12 0 -20 -7 -20 -7 0 -10 -7 -6 -16 4 -12 2 -15 -9 -10 -8 3 -15 1 -15
-4 0 -6 4 -10 10 -10 5 0 1 -16 -10 -36 -11 -19 -16 -33 -10 -29 6 3 7 0 4 -9
-3 -9 -11 -13 -17 -9 -6 4 -8 0 -4 -10 7 -19 -1 -49 -12 -42 -4 2 -8 -2 -8
-10 0 -8 4 -12 9 -9 4 3 5 -2 2 -10 -3 -9 -11 -13 -18 -9 -6 4 -5 -1 3 -10 9
-12 10 -17 2 -17 -7 0 -9 -4 -6 -10 3 -5 2 -10 -3 -10 -6 0 -8 -8 -5 -19 3
-10 0 -22 -6 -25 -5 -4 -7 -14 -4 -23 4 -11 3 -14 -5 -9 -8 5 -10 2 -6 -8 3
-9 1 -16 -5 -16 -6 0 -11 -5 -11 -11 0 -5 4 -8 10 -4 5 3 5 -7 -1 -25 -7 -18
-15 -27 -22 -23 -8 4 -8 1 0 -9 7 -8 9 -18 5 -22 -7 -8 -8 -13 -11 -42 0 -8
-5 -13 -10 -9 -6 3 -8 -6 -5 -20 3 -20 1 -23 -13 -18 -16 6 -16 5 -4 -10 11
-14 11 -20 1 -32 -7 -8 -9 -15 -4 -15 4 0 -1 -7 -12 -16 -10 -8 -13 -13 -6 -9
6 3 12 2 12 -3 0 -6 -7 -13 -16 -16 -8 -3 -13 -10 -10 -15 9 -14 -15 -61 -27
-54 -6 3 -7 1 -3 -6 4 -6 2 -18 -4 -26 -7 -8 -9 -15 -5 -15 4 0 2 -7 -5 -15
-7 -8 -17 -12 -24 -8 -7 4 -7 1 1 -7 10 -10 8 -20 -10 -44 -12 -17 -27 -37
-34 -44 -7 -8 -11 -18 -8 -23 4 -5 1 -9 -4 -9 -6 0 -11 -6 -11 -14 0 -8 -9
-21 -20 -29 -11 -8 -17 -17 -13 -20 3 -4 1 -7 -6 -7 -7 0 -9 -4 -6 -10 3 -5 2
-10 -4 -10 -5 0 -12 -8 -16 -19 -6 -21 -93 -134 -106 -139 -5 -2 -7 -8 -3 -13
3 -5 0 -9 -6 -9 -6 0 -8 -5 -4 -12 5 -7 2 -9 -9 -5 -11 4 -14 2 -10 -9 3 -7 0
-14 -6 -14 -6 0 -11 -6 -11 -13 0 -7 -8 -22 -18 -33 -10 -10 -21 -27 -25 -36
-3 -10 -11 -18 -17 -18 -6 0 -8 -5 -4 -12 5 -8 2 -9 -10 -5 -9 4 -15 3 -12 -2
9 -14 -18 -61 -38 -67 -13 -4 -15 -8 -6 -14 9 -5 9 -9 1 -14 -6 -4 -17 -4 -24
0 -9 6 -9 4 1 -8 11 -14 9 -19 -10 -32 -13 -9 -22 -19 -21 -21 6 -12 -10 -34
-20 -28 -6 4 -8 0 -4 -10 3 -10 2 -17 -3 -17 -6 0 -9 -6 -8 -12 2 -7 -3 -12
-10 -10 -6 1 -11 -2 -10 -6 4 -11 -43 -102 -52 -102 -5 0 -11 -11 -14 -25 -4
-14 -10 -23 -15 -20 -5 2 -12 -2 -15 -11 -4 -10 -2 -13 6 -8 6 4 -3 -14 -20
-39 -18 -25 -32 -50 -32 -54 0 -5 -7 -18 -16 -29 -8 -10 -12 -13 -8 -5 4 9 3
12 -4 7 -6 -4 -9 -13 -6 -20 3 -7 -2 -19 -10 -26 -9 -7 -13 -16 -10 -21 3 -5
0 -9 -5 -9 -6 0 -17 -16 -25 -35 -8 -19 -18 -35 -21 -35 -3 0 -3 5 1 12 5 7 3
8 -5 4 -7 -5 -10 -15 -7 -23 4 -10 2 -13 -8 -10 -10 4 -14 0 -11 -13 2 -10 -3
-21 -11 -24 -9 -3 -13 -9 -10 -14 2 -4 -5 -19 -16 -32 -11 -14 -16 -18 -12
-10 4 9 3 12 -2 7 -5 -5 -10 -13 -10 -18 -1 -5 -2 -14 -3 -20 0 -5 -6 -7 -13
-3 -6 4 -8 3 -4 -4 3 -6 0 -17 -8 -25 -8 -8 -12 -17 -9 -21 4 -3 -2 -6 -13 -6
-14 0 -16 -3 -6 -9 10 -6 5 -17 -21 -44 -20 -19 -33 -38 -29 -41 3 -3 0 -6 -6
-6 -7 0 -11 -6 -9 -12 1 -7 -4 -12 -11 -10 -8 1 -11 -1 -8 -6 7 -12 -33 -74
-44 -67 -5 3 -8 0 -5 -7 3 -7 -6 -25 -19 -39 -14 -15 -22 -30 -19 -33 4 -3 0
-6 -7 -6 -7 0 -11 -3 -7 -6 3 -3 1 -11 -4 -18 -5 -6 -24 -33 -42 -61 -17 -27
-39 -57 -47 -65 -13 -12 -13 -13 -1 -5 10 6 8 0 -4 -16 -12 -16 -27 -25 -38
-23 -10 1 -15 -1 -12 -7 4 -5 11 -7 16 -4 14 10 11 -9 -7 -31 -8 -10 -12 -13
-8 -5 4 9 3 12 -4 7 -6 -4 -9 -13 -5 -21 3 -10 -1 -15 -13 -15 -16 0 -17 -2
-4 -10 13 -9 7 -14 -12 -11 -4 0 -4 -7 -1 -16 5 -13 2 -15 -12 -10 -16 7 -16
5 -4 -10 12 -15 12 -16 -4 -10 -10 4 -16 3 -12 -2 7 -12 -5 -42 -14 -37 -4 3
-8 -5 -8 -16 -1 -11 -8 -28 -16 -37 -8 -9 -17 -24 -20 -34 -4 -10 -11 -16 -16
-12 -6 3 -8 -4 -6 -16 3 -15 0 -19 -10 -15 -9 3 -12 -1 -10 -15 2 -10 0 -19
-6 -19 -5 0 -9 -7 -9 -16 0 -9 -6 -14 -13 -11 -9 3 -13 -3 -13 -17 1 -11 -4
-20 -11 -19 -8 2 -10 -4 -6 -14 4 -10 2 -14 -4 -10 -6 4 -16 -6 -22 -23 -5
-17 -15 -30 -22 -30 -7 0 -10 -3 -6 -6 3 -3 1 -11 -4 -18 -5 -6 -17 -20 -25
-31 -9 -11 -12 -14 -8 -6 5 10 3 12 -5 7 -7 -5 -10 -10 -7 -13 3 -3 1 -14 -5
-25 -9 -16 -13 -17 -27 -6 -15 12 -16 11 -4 -4 12 -15 10 -21 -16 -47 -17 -16
-28 -32 -24 -37 4 -4 0 -5 -9 -1 -11 4 -16 0 -15 -11 0 -10 -5 -16 -13 -14 -7
2 -11 -3 -9 -10 5 -15 -57 -79 -67 -70 -3 4 -3 -1 0 -9 3 -9 -2 -22 -12 -30
-16 -12 -17 -12 -6 2 10 13 10 16 -2 16 -8 0 -13 -3 -11 -6 7 -12 -14 -52 -24
-46 -6 4 -9 1 -8 -7 2 -7 -3 -12 -10 -10 -8 1 -11 -2 -7 -8 6 -10 -24 -59 -38
-60 -5 0 -5 5 -1 12 4 7 3 8 -5 4 -6 -4 -9 -12 -5 -17 8 -14 -36 -60 -49 -52
-6 4 -7 1 -2 -7 5 -8 2 -18 -9 -26 -10 -7 -17 -16 -17 -21 0 -4 -16 -24 -34
-44 -19 -20 -31 -40 -28 -43 4 -3 1 -6 -6 -6 -7 0 -9 -4 -6 -10 4 -7 2178 -10
6490 -10 l6484 0 -5 25 c-2 14 0 25 7 25 6 0 3 7 -5 16 -19 19 -21 28 -3 18 9
-6 9 -4 -1 8 -11 14 -10 18 4 26 15 8 15 10 -1 16 -16 6 -16 8 1 34 15 24 15
25 1 13 -14 -11 -17 -11 -17 1 0 8 6 20 13 27 10 11 10 13 0 7 -8 -5 -13 -1
-13 9 0 10 5 13 13 9 9 -6 9 -4 1 7 -5 8 -10 23 -10 34 1 11 -2 22 -6 25 -4 3
-8 20 -10 38 -1 18 -5 32 -8 32 -3 0 -6 12 -6 27 -2 33 -10 69 -19 83 -4 6 -1
18 6 26 7 8 8 14 3 13 -21 -4 -26 2 -13 18 8 10 9 14 2 10 -6 -4 -14 -3 -18 3
-3 5 -1 10 5 10 7 0 5 7 -4 16 -18 17 -21 28 -7 19 5 -3 13 -1 16 5 4 6 1 9
-7 8 -7 -2 -12 3 -10 10 1 6 -3 12 -9 12 -8 0 -8 5 1 15 9 11 9 15 1 15 -7 0
-9 5 -6 10 3 6 2 10 -4 10 -5 0 -8 11 -6 25 1 14 -1 25 -5 25 -4 0 -10 9 -13
21 -5 18 -3 18 11 7 16 -12 16 -11 1 7 -23 28 -28 47 -17 67 7 14 5 16 -9 11
-16 -6 -17 -5 -3 12 12 15 12 17 1 10 -11 -6 -13 -4 -8 8 3 10 2 17 -3 17 -6
0 -10 5 -10 11 0 5 5 7 11 3 6 -3 3 5 -6 20 -9 14 -15 32 -12 40 3 8 2 16 -2
18 -4 2 -11 16 -15 31 -5 22 -4 27 6 21 7 -5 5 4 -5 19 -12 19 -14 27 -5 27
11 0 11 2 0 8 -7 5 -14 22 -15 39 -1 17 -6 29 -11 25 -5 -3 -7 4 -4 16 4 13 1
20 -5 19 -6 -1 -11 4 -12 11 0 7 -6 17 -14 21 -8 5 -11 16 -7 26 6 16 4 16
-11 4 -9 -8 -14 -9 -10 -2 4 6 3 14 -3 18 -5 3 -17 23 -26 43 -8 20 -20 45
-26 56 -7 14 -6 16 4 10 7 -4 5 2 -5 13 -9 11 -14 23 -10 26 3 4 2 7 -4 7 -6
0 -14 7 -17 16 -4 10 -2 13 7 8 8 -5 7 -2 -2 9 -8 10 -11 20 -8 24 4 3 2 11
-3 18 -5 6 -11 20 -13 31 -1 10 -6 24 -10 31 -4 6 -1 14 5 16 10 4 10 6 1 6
-7 1 -13 6 -13 12 0 5 4 8 8 5 5 -3 9 1 9 9 0 8 -3 12 -7 10 -4 -2 -8 8 -8 23
-2 37 -6 55 -15 70 -5 6 -5 17 -2 22 3 6 1 10 -5 10 -6 0 -8 5 -5 10 3 6 0 10
-7 10 -9 0 -9 3 2 10 13 8 12 10 -3 10 -10 0 -15 4 -12 10 3 5 1 10 -6 10 -7
0 -9 3 -6 7 4 3 -1 12 -11 20 -9 8 -12 12 -6 9 6 -3 11 1 11 9 0 8 -5 13 -10
12 -5 -1 -12 5 -16 13 -5 8 -13 25 -19 37 -9 16 -8 23 1 26 8 4 8 6 -2 6 -11
1 -11 4 0 18 10 11 10 14 2 9 -9 -5 -13 0 -13 14 0 13 4 19 12 14 7 -4 8 -3 4
5 -4 6 -2 19 6 28 7 9 8 14 2 10 -16 -9 4 85 20 95 6 5 7 8 1 8 -6 0 -11 13
-11 30 -1 16 2 27 7 24 5 -3 6 2 3 11 -4 8 0 23 7 32 10 11 10 14 2 9 -9 -5
-12 0 -11 18 1 15 7 26 13 26 5 0 3 5 -5 10 -11 7 -11 10 -2 10 7 0 10 4 7 10
-3 5 0 10 7 10 8 0 9 3 3 8 -15 10 -13 45 3 55 9 6 10 12 2 22 -7 8 -7 20 -1
36 5 13 10 18 10 10 1 -8 4 -11 7 -8 4 4 1 13 -5 21 -10 11 -10 19 -1 33 9 16
10 15 5 -7 -5 -18 -4 -21 4 -10 5 8 7 27 4 44 -4 16 -2 27 3 24 8 -6 12 20 15
95 1 21 5 27 17 22 12 -5 13 -3 2 11 -12 13 -11 17 1 25 11 7 11 9 0 9 -10 0
-11 3 -3 13 6 7 9 26 6 41 -3 20 -1 25 7 20 8 -5 9 -3 4 6 -12 20 -15 101 -3
94 5 -4 5 3 -2 15 -8 16 -8 26 -1 35 6 7 8 15 6 18 -8 8 16 58 27 58 5 0 7 4
3 9 -3 5 2 16 10 24 8 9 15 22 15 29 0 7 9 24 20 38 11 14 20 31 20 38 0 7 4
10 10 7 5 -3 7 0 4 8 -2 7 0 27 6 43 13 31 22 79 22 107 -1 9 3 15 7 12 5 -2
7 9 5 26 -3 21 0 28 8 23 7 -5 8 -3 3 6 -15 24 -12 60 5 60 9 0 11 3 5 8 -6 4
-11 22 -12 40 0 23 4 32 16 32 13 0 13 2 3 9 -15 9 -15 20 -1 37 5 6 6 20 2
29 -5 14 -3 16 8 10 12 -8 12 -6 0 8 -13 16 -8 22 13 18 5 -1 5 4 0 11 -11 14
-11 24 0 85 6 28 13 40 20 36 6 -4 5 1 -3 10 -12 15 -11 17 5 17 11 0 15 3 9
8 -11 7 -11 30 0 72 4 14 7 40 7 57 0 19 5 30 10 27 6 -4 6 1 0 13 -6 11 -7
25 -1 34 4 9 6 27 4 39 -3 13 1 30 8 39 7 9 8 12 1 8 -7 -4 -11 2 -11 17 0 18
4 23 16 18 14 -5 14 -3 -1 12 -18 18 -25 42 -10 32 5 -3 9 1 9 9 0 8 -5 11
-10 8 -6 -4 -8 1 -4 11 4 10 7 20 7 22 0 3 6 2 13 -2 10 -6 10 -4 0 7 -17 17
-17 91 0 108 8 10 8 12 0 7 -15 -8 -14 33 1 53 8 11 8 13 -1 7 -7 -4 -13 -3
-13 1 0 5 6 15 13 22 10 11 10 13 0 7 -17 -9 -17 16 -1 32 9 9 9 12 0 12 -7 0
-12 10 -12 23 0 18 2 19 10 7 6 -9 10 -10 10 -3 0 6 -5 15 -11 19 -8 4 -7 9 2
15 12 7 12 9 0 9 -10 0 -11 3 -2 14 9 11 9 15 -1 19 -10 4 -10 8 2 16 13 9 13
11 1 11 -11 0 -9 4 5 15 10 8 15 15 9 14 -22 -3 -27 2 -16 15 9 11 9 16 0 21
-8 6 -7 10 2 16 10 6 11 9 2 9 -7 0 -13 5 -13 11 0 5 6 7 13 3 10 -6 10 -4 0
7 -14 15 -18 43 -5 35 5 -3 9 1 9 9 0 8 -4 12 -9 9 -13 -8 -9 31 5 45 7 9 7
11 1 8 -7 -4 -15 0 -18 9 -8 22 -8 26 3 20 5 -4 7 3 4 14 -3 11 -8 20 -12 20
-3 0 -7 11 -7 25 -1 14 3 25 10 25 6 0 4 4 -4 10 -8 5 -15 21 -16 37 -1 15 -3
29 -4 31 -7 7 -5 29 4 41 9 12 8 13 -3 6 -11 -6 -13 -4 -8 8 3 9 3 19 -2 21
-4 3 -7 32 -6 66 1 33 -3 60 -8 60 -5 0 -4 7 3 15 7 8 8 15 3 15 -5 0 -9 9 -9
19 0 11 4 17 8 15 4 -3 8 0 8 5 0 6 -5 11 -11 11 -8 0 -7 6 2 17 8 9 10 14 4
11 -6 -4 -10 9 -9 33 2 67 3 71 17 63 9 -6 9 -4 1 7 -5 8 -9 20 -8 27 1 6 2
26 3 43 1 20 5 28 13 23 7 -5 8 -3 2 7 -11 19 -16 51 -6 45 4 -2 8 4 8 15 0
10 -4 19 -9 19 -4 0 -5 5 -2 10 4 6 12 8 18 4 7 -3 3 2 -7 10 -15 12 -16 16
-5 16 12 0 12 2 -1 10 -13 9 -13 10 0 10 9 0 11 3 5 8 -12 8 -16 42 -6 42 4 0
6 18 5 40 -1 24 2 37 8 34 6 -4 5 3 -2 15 -9 18 -9 26 2 39 9 11 10 14 1 8
-10 -5 -11 -1 -4 17 6 14 7 27 5 30 -3 3 -1 14 5 26 7 13 8 22 1 26 -5 3 -10
11 -10 16 0 6 3 8 8 6 9 -6 9 79 -1 89 -10 10 -9 26 1 20 5 -3 9 1 9 9 0 8 -4
12 -9 9 -4 -3 -8 0 -8 5 0 6 6 11 13 11 9 0 8 3 -2 9 -7 5 -10 14 -7 20 4 6 2
11 -5 11 -8 0 -7 5 2 17 8 9 9 14 3 10 -15 -9 -14 55 1 65 6 5 5 8 -4 8 -7 0
-11 6 -7 15 3 8 0 15 -6 15 -7 0 -6 5 2 15 10 12 10 15 0 15 -8 0 -9 4 -3 13
8 11 10 32 3 40 -1 1 -3 16 -5 33 -1 18 -5 39 -8 48 -5 12 -3 15 6 10 9 -6 9
-4 1 7 -6 8 -10 24 -9 37 1 12 -3 22 -8 22 -5 0 -4 6 2 14 8 10 9 16 1 21 -6
3 -8 10 -5 15 3 5 1 11 -3 14 -5 3 -8 18 -7 33 1 15 -2 36 -8 47 -7 13 -6 16
3 11 7 -5 6 2 -3 16 -8 13 -13 36 -12 52 1 15 -1 27 -4 27 -4 0 -7 8 -8 18 -3
32 -12 72 -19 83 -5 8 -3 9 7 4 11 -6 12 -5 2 6 -7 7 -13 20 -13 29 0 8 -7 28
-15 43 -8 15 -10 25 -5 22 17 -10 11 7 -6 19 -9 7 -17 24 -17 38 -1 14 -4 25
-7 23 -3 -2 -10 8 -17 21 -8 17 -8 22 0 17 6 -4 1 7 -11 24 -17 23 -19 33 -9
43 10 10 8 12 -7 6 -15 -5 -17 -2 -13 13 3 12 -1 22 -11 26 -14 5 -14 7 -2 15
13 8 12 10 -2 10 -11 0 -18 8 -18 18 0 10 -6 24 -12 31 -11 11 -10 12 2 6 11
-6 10 -3 -3 12 -9 11 -14 23 -10 26 3 4 0 7 -7 7 -7 0 -10 3 -7 7 4 3 -1 15
-10 26 -10 11 -13 17 -6 14 6 -4 15 -2 19 4 4 7 3 9 -2 6 -6 -3 -16 -2 -24 4
-13 7 -13 9 0 9 12 1 11 3 -2 11 -10 5 -18 18 -18 29 0 10 -6 21 -12 23 -10 4
-10 6 0 6 6 1 12 5 12 11 0 5 -6 9 -12 7 -7 -1 -13 5 -13 13 0 8 -7 21 -15 28
-8 8 -9 11 -2 7 18 -9 15 2 -9 26 -11 11 -18 27 -15 35 3 8 2 14 -3 14 -8 0
-22 35 -18 44 1 1 -4 10 -11 19 -8 9 -11 21 -7 27 3 5 1 10 -6 10 -7 0 -9 3
-6 7 4 3 -1 12 -11 20 -10 9 -11 12 -2 7 10 -5 9 -1 -3 14 -11 12 -16 26 -11
33 4 7 3 10 -3 6 -12 -8 -86 140 -78 154 4 5 -1 12 -10 15 -9 4 -14 13 -11 21
3 8 2 12 -3 9 -5 -3 -12 1 -15 10 -4 10 -2 13 7 9 6 -4 4 0 -6 9 -12 9 -19 29
-20 50 -1 20 -4 31 -8 25 -4 -7 -9 -4 -13 6 -3 9 -4 21 0 26 3 5 1 9 -5 9 -6
0 -7 7 -4 17 4 10 2 14 -4 10 -6 -4 -14 0 -17 9 -8 22 -8 26 4 19 6 -3 10 -1
10 4 0 6 -6 11 -14 11 -18 0 -27 24 -15 39 5 6 6 9 2 6 -11 -8 -42 47 -35 63
3 9 1 13 -5 9 -6 -4 -14 0 -17 9 -4 10 -2 13 7 8 6 -4 1 5 -13 21 -14 16 -19
25 -13 21 9 -5 11 -2 7 8 -3 9 -11 13 -18 9 -6 -4 -5 1 3 10 12 16 12 17 -5
10 -17 -6 -17 -5 -5 10 12 15 12 17 -3 11 -12 -4 -16 0 -16 15 0 12 -4 21 -10
21 -5 0 -7 7 -3 15 3 9 2 15 -3 14 -21 -4 -28 2 -14 11 13 8 12 10 -3 10 -10
0 -15 5 -12 10 3 6 1 10 -5 10 -6 0 -8 5 -5 10 3 6 2 10 -3 10 -6 0 -13 7 -16
16 -4 10 -2 13 7 9 6 -4 4 0 -5 8 -10 8 -15 17 -11 20 3 4 1 7 -6 7 -7 0 -10
4 -7 9 3 5 -1 12 -10 15 -13 5 -14 9 -4 21 11 13 10 14 -4 9 -10 -4 -16 -1
-16 9 0 8 -7 20 -15 27 -8 7 -15 19 -15 28 0 17 -46 63 -54 54 -3 -3 -6 0 -6
6 0 7 -6 12 -14 12 -8 0 -28 16 -45 35 -17 20 -31 33 -31 30 0 -4 -18 12 -39
34 -22 23 -44 41 -50 41 -5 0 -13 5 -17 12 -4 7 -3 8 4 4 7 -4 12 -5 12 -1 0
3 -12 10 -26 15 -14 6 -28 19 -31 30 -3 11 -10 20 -15 20 -5 0 -6 -6 -3 -12 4
-7 -2 -3 -13 9 -11 12 -22 19 -26 16 -3 -4 -6 1 -6 10 0 10 -5 17 -11 17 -5 0
-7 4 -4 10 4 6 -1 7 -11 3 -11 -4 -15 -2 -11 4 4 6 0 14 -9 17 -9 4 -14 13
-10 22 3 9 2 12 -4 9 -6 -4 -39 22 -73 57 -77 77 -102 97 -150 123 -20 11 -37
23 -37 28 0 4 4 6 9 3 13 -8 8 19 -7 37 -10 12 -10 16 0 21 11 5 11 7 0 12
-10 5 -9 10 5 21 10 8 12 12 6 8 -7 -3 -13 -1 -13 4 0 6 6 11 13 11 8 0 7 4
-3 10 -8 5 -10 10 -4 10 7 0 10 13 9 30 -1 17 1 30 5 30 4 0 11 7 14 16 3 8 2
12 -4 9 -6 -3 -10 4 -10 17 0 18 2 20 10 8 6 -9 10 -10 10 -3 0 6 -4 14 -10
18 -10 6 -2 36 14 47 8 5 7 8 -1 8 -8 0 -11 15 -9 48 2 26 4 55 5 65 1 11 6
16 14 11 10 -6 10 -4 0 7 -7 7 -13 17 -13 22 0 4 6 5 13 1 9 -5 9 -4 1 5 -13
14 -6 64 7 55 5 -3 5 6 -1 20 -8 22 -7 26 8 26 10 0 13 3 7 8 -13 9 -20 46 -7
38 5 -3 9 1 9 9 0 8 -4 12 -9 9 -11 -7 -10 3 3 28 8 15 8 19 0 14 -6 -4 -11
-4 -11 -1 0 4 5 16 11 27 8 15 8 19 0 14 -6 -4 -11 -4 -11 -1 0 4 5 16 11 27
8 15 8 19 0 14 -15 -10 -14 7 1 22 9 9 9 12 -2 12 -11 1 -10 3 3 11 14 8 15
14 7 24 -8 9 -7 17 5 29 9 9 12 16 7 16 -12 0 -10 70 2 89 6 10 6 12 -2 7 -15
-9 -15 7 0 22 8 8 8 15 -2 27 -11 14 -11 18 -1 25 11 6 11 8 0 12 -12 4 -11 8
1 23 10 13 11 16 2 11 -11 -6 -13 -1 -10 20 1 16 7 32 13 36 6 5 5 8 -2 8 -7
0 -13 7 -13 16 0 8 5 12 11 8 6 -3 5 4 -3 17 -8 13 -13 41 -13 61 1 20 -2 35
-6 32 -4 -2 -9 5 -12 16 -3 12 -1 18 5 14 6 -4 3 4 -5 17 -8 13 -13 32 -12 42
2 9 -1 17 -7 17 -6 0 -8 7 -4 15 3 8 0 15 -6 15 -6 0 -9 3 -5 6 3 3 -6 28 -19
55 -14 27 -23 53 -19 58 3 5 0 13 -6 16 -5 4 -8 13 -5 21 3 8 0 14 -6 14 -6 0
-9 3 -5 6 3 4 -1 13 -9 21 -8 8 -12 19 -9 24 4 5 1 9 -5 9 -7 0 -9 7 -6 16 3
8 2 13 -3 10 -5 -3 -12 5 -15 19 -3 13 -10 34 -15 47 -5 13 -9 26 -10 31 0 4
-14 22 -30 39 -17 18 -27 38 -23 46 4 11 1 13 -8 7 -10 -6 -12 -4 -7 8 3 9 3
16 -1 14 -4 -1 -8 2 -9 6 -6 21 -120 110 -132 102 -5 -3 -12 2 -15 11 -3 8
-10 12 -16 9 -5 -3 -10 -1 -10 4 0 6 -7 11 -16 11 -9 0 -12 5 -8 12 5 8 2 9
-9 5 -18 -7 -42 24 -29 38 4 5 2 5 -5 1 -7 -4 -10 -13 -6 -21 4 -11 1 -13 -11
-9 -9 3 -13 11 -9 18 4 7 1 7 -7 -1 -10 -9 -17 -10 -27 -2 -9 8 -13 8 -13 0 0
-7 -8 -8 -22 -2 -13 4 -44 7 -70 6 -28 -1 -48 3 -48 9 0 6 -5 4 -10 -4 -5 -8
-10 -10 -10 -5 0 6 -29 11 -70 11 -38 0 -65 -3 -59 -7z m794 -2059 c3 -5 1
-10 -4 -10 -6 0 -11 5 -11 10 0 6 2 10 4 10 3 0 8 -4 11 -10z"/>
<path d="M10219 12813 c-13 -16 -12 -17 4 -4 16 13 21 21 13 21 -2 0 -10 -8
-17 -17z"/>
<path d="M6335 11881 c-3 -5 -2 -12 3 -15 5 -3 9 1 9 9 0 17 -3 19 -12 6z"/>
<path d="M11632 10984 c10 -10 20 -16 22 -13 3 3 -5 11 -17 18 -21 13 -21 12
-5 -5z"/>
<path d="M11710 10929 c0 -5 5 -7 10 -4 6 3 10 8 10 11 0 2 -4 4 -10 4 -5 0
-10 -5 -10 -11z"/>
<path d="M11740 10916 c0 -2 8 -10 18 -17 15 -13 16 -12 3 4 -13 16 -21 21
-21 13z"/>
<path d="M12175 10490 c3 -5 8 -10 11 -10 2 0 4 5 4 10 0 6 -5 10 -11 10 -5 0
-7 -4 -4 -10z"/>
<path d="M4559 9793 c-13 -16 -12 -17 4 -4 9 7 17 15 17 17 0 8 -8 3 -21 -13z"/>
<path d="M13175 5330 c3 -5 8 -10 11 -10 2 0 4 5 4 10 0 6 -5 10 -11 10 -5 0
-7 -4 -4 -10z"/>
<path d="M13056 4743 c-6 -14 -5 -15 5 -6 7 7 10 15 7 18 -3 3 -9 -2 -12 -12z"/>
<path d="M1495 3239 c-4 -6 -5 -12 -2 -15 2 -3 7 2 10 11 7 17 1 20 -8 4z"/>
<path d="M435 1750 c-3 -5 -1 -10 4 -10 6 0 11 5 11 10 0 6 -2 10 -4 10 -3 0
-8 -4 -11 -10z"/>
</g>
</svg>
